<?xml version="1.0" standalone="no"?>
<!DOCTYPE svg PUBLIC "-//W3C//DTD SVG 20010904//EN"
 "http://www.w3.org/TR/2001/REC-SVG-20010904/DTD/svg10.dtd">
<svg version="1.0" xmlns="http://www.w3.org/2000/svg"
 width="148.000000pt" height="31.000000pt" viewBox="0 0 148.000000 31.000000"
 preserveAspectRatio="xMidYMid meet">

<g transform="translate(0.000000,31.000000) scale(0.100000,-0.100000)"
fill="#000000" stroke="none">
<path d="M466 294 c-9 -8 -16 -20 -16 -25 0 -5 -13 0 -29 12 -25 18 -39 21
-100 17 -76 -4 -107 -21 -95 -52 5 -14 14 -16 40 -11 31 5 34 4 34 -17 0 -13
-9 -49 -20 -80 -28 -81 -11 -118 54 -118 32 0 66 28 66 54 0 13 -9 49 -20 82
-25 71 -21 86 20 78 22 -5 30 -3 30 7 0 11 2 11 10 -1 5 -8 10 -51 10 -96 0
-103 14 -119 101 -119 47 0 63 4 80 22 21 20 22 31 20 125 -1 57 -6 107 -10
111 -5 5 -21 7 -37 5 -28 -3 -29 -4 -29 -65 0 -63 -13 -91 -35 -78 -9 6 -11
25 -6 67 5 50 3 61 -14 78 -24 24 -34 25 -54 4z"/>
<path d="M60 283 c-30 -15 -35 -23 -35 -53 0 -27 6 -38 31 -55 72 -46 72 -46
42 -40 -16 3 -39 8 -53 11 -20 5 -27 1 -36 -20 -10 -22 -10 -33 4 -61 36 -75
163 -69 201 9 17 35 18 42 5 65 -8 14 -34 36 -59 49 -60 30 -63 44 -9 40 38
-3 44 0 47 18 4 27 -15 42 -63 49 -28 4 -50 1 -75 -12z"/>
<path d="M684 276 c-13 -21 -14 -33 -4 -80 6 -31 9 -60 6 -65 -4 -5 -7 -28 -8
-52 -2 -50 18 -69 73 -69 63 0 119 65 119 137 -1 108 -137 202 -186 129z m101
-91 c0 -23 -4 -30 -20 -30 -21 0 -31 25 -21 51 11 28 41 12 41 -21z"/>
<path d="M892 288 c-15 -15 -15 -36 0 -92 9 -36 9 -53 -4 -92 -24 -77 10 -120
72 -91 32 15 38 63 15 122 -13 34 -14 51 -5 90 8 35 8 51 -1 61 -14 17 -61 18
-77 2z"/>
<path d="M1066 279 c-38 -30 -56 -71 -56 -128 0 -62 16 -98 51 -117 36 -18 53
-18 95 2 43 21 64 59 64 119 0 53 -19 95 -56 124 -34 27 -64 27 -98 0z m58
-75 c21 -8 21 -43 0 -51 -8 -3 -23 1 -31 10 -13 13 -14 19 -3 31 14 18 13 18
34 10z"/>
<path d="M1372 288 c-15 -15 -15 -36 0 -91 9 -36 8 -52 -5 -91 -26 -77 10
-123 73 -93 32 16 38 61 14 122 -14 37 -15 52 -5 91 9 35 9 49 0 60 -14 17
-61 18 -77 2z"/>
</g>
</svg>
