<?xml version="1.0" standalone="no"?>
<!DOCTYPE svg PUBLIC "-//W3C//DTD SVG 20010904//EN"
 "http://www.w3.org/TR/2001/REC-SVG-20010904/DTD/svg10.dtd">
<svg version="1.0" xmlns="http://www.w3.org/2000/svg"
 width="118.000000pt" height="23.000000pt" viewBox="0 0 118.000000 23.000000"
 preserveAspectRatio="xMidYMid meet">

<g transform="translate(0.000000,23.000000) scale(0.100000,-0.100000)"
fill="#000000" stroke="none">
<path d="M36 199 c-35 -28 -33 -55 10 -94 25 -23 32 -35 23 -40 -7 -5 -15 -1
-21 9 -16 29 -48 13 -48 -25 0 -22 42 -49 75 -49 72 0 105 84 45 118 -16 9
-30 23 -30 31 0 12 3 11 18 -1 9 -9 23 -13 30 -11 20 8 14 51 -10 67 -31 22
-60 20 -92 -5z"/>
<path d="M178 213 c-25 -6 -24 -53 2 -60 16 -4 20 -15 22 -72 l3 -66 30 0 c30
0 30 1 31 55 2 77 2 78 24 85 26 8 26 41 1 55 -20 10 -80 12 -113 3z"/>
<path d="M334 212 c-18 -11 -25 -74 -15 -127 14 -75 61 -103 125 -74 30 14 34
24 42 94 10 85 -9 125 -51 109 -11 -5 -15 -22 -15 -69 0 -104 -31 -96 -40 10
-5 60 -18 76 -46 57z"/>
<path d="M518 198 c-28 -28 -26 -150 3 -179 21 -21 62 -20 100 4 46 29 54 124
14 161 -34 32 -92 39 -117 14z m76 -74 c7 -19 -11 -57 -25 -49 -15 10 -11 65
5 65 8 0 17 -7 20 -16z"/>
<path d="M825 195 c-24 -23 -30 -49 -26 -105 6 -79 85 -117 136 -65 21 20 25
33 25 88 0 53 -4 67 -23 85 -32 30 -81 29 -112 -3z m71 -60 c8 -21 -4 -67 -16
-60 -13 8 -13 75 0 75 6 0 13 -7 16 -15z"/>
<path d="M674 195 c-4 -9 -2 -21 5 -28 15 -15 14 -104 -1 -110 -25 -9 7 -42
44 -45 44 -4 68 20 50 49 -15 23 -16 99 -1 99 6 0 9 10 7 23 -3 19 -10 22 -51
25 -36 2 -49 -1 -53 -13z"/>
<path d="M1077 203 c-11 -10 -8 -43 3 -43 6 0 10 -22 10 -50 0 -29 -5 -50 -11
-50 -6 0 -9 -10 -7 -22 3 -20 9 -23 47 -23 32 0 47 5 55 19 8 14 8 20 -1 23
-16 6 -18 94 -3 109 22 22 -1 44 -44 44 -24 0 -46 -3 -49 -7z"/>
</g>
</svg>
